<svg xmlns="http://www.w3.org/2000/svg" height=80 width=80 viewBox="0 0 80 80">
  <title>twitter_icon</title>
  <g>
    <path fill="#3ca2dd" d="M15,72.58c7.73.44,14.43-1.32,20.53-6.3-5-.52-8.84-2.4-11.61-6.18a25.2,25.2,0,0,1-1.81-3.53h6l.17-.27C21.59,54,17.72,49.64,17.46,42.53l5.76,1.3.2-.31a16.07,16.07,0,0,1-5.91-9A14.16,14.16,0,0,1,19,23.75C27.05,33.31,37.3,38.41,49.8,39.44a17.8,17.8,0,0,1,1-9.77,13.48,13.48,0,0,1,22-4.76,2.8,2.8,0,0,0,3.18.74l7-2.54a17.37,17.37,0,0,1-5.62,7.14l.14.36,7.22-2,.26.17c-1.61,2-3.15,4.13-4.86,6.06a3,3,0,0,0-.88,2.22,38.61,38.61,0,0,1-6.41,22.79A41.24,41.24,0,0,1,44.79,78.26c-10.35,1.88-20-.25-29.1-5.17A7.61,7.61,0,0,1,15,72.58Z"/>
  </g>
</svg>
