<svg xmlns="http://www.w3.org/2000/svg" width="400px" height="70px" viewBox="0 0 650 70">
  <style>
    .st1 {
      fill: #FFFFFF;
    }
    .st2 {
      fill: #ee3124;
    }
  </style>
  <path class="st1" d="M0 70.4V.8h76.8v15.5H17v11.8h51.5v15H17v27.3zm257 0V46.7c0-2.1-1.8-3-1.8-3-.8-.5-3.2-.6-6.8-.6h.8-35.8v27.4h-17V.8h53c9.2.0 15.5 1.4 19.8 5.6 4.3 4.4 4.8 10.1 4.9 16v5c.1 5-2.6 9.6-5.8 12.3l.6.3c1.3.6 2 1.5 2 1.5 2.4 3.1 2.4 5.7 2.4 9v19.9zm-9.2-42.3c4.2.0 6.6.0 7.6-.6.0.0 1.7-1 1.8-3v-4.6c0-2.1-1.8-3-1.8-3-1.3-.7-3.6-.6-8.9-.6h-33.1v11.8h35.1zM299 70.4V16.3h-16V.8h63.8v15.5H316v54.1zm4.4-58.5V9.6zm264.2 58.5V16.3h-16V.8h63.8v15.5h-30.8v54.1zm4.3-58.5V9.6zM355.2 70.4V.8h17v69.6zm119.4.0V.8h68.5v15.5h-51.5v11.8h35.8v15h-35.8v11.8h51.9v15.5zm-72.6.0h-17.1V.8h54.9s10.1-.4 16.4 5.9c0 0 6.5 5.5 6.5 18.8v44.9h-17v-46s.2-4.7-1.4-6.3c0 0-1.4-1.8-4.1-1.8H402z"></path>
  <path class="st2" d="M84.3 26.3h28.2v18.5H84.3zm36-26.3H148v18.5h-27.7zm0 52.5H148V71h-27.7zm35.4-26.2H184v18.5h-28.3zM95.9.0C90 1.5 85.4 8.1 84.3 16.5v2.1h28.2V0H95.9zM84.3 52.5v2.3c1 8 5.3 14.4 10.9 16.2h17.4V52.5H84.3zm99.7-34v-2.1c-1.1-8.3-5.7-14.9-11.6-16.5h-16.7v18.5H184zm-10.9 52.6c5.5-1.9 9.8-8.2 10.9-16.2v-2.3h-28.3v18.5h17.4z"></path>
</svg>
