<svg xmlns="http://www.w3.org/2000/svg" height=80 width=80 viewBox="0 0 80 80">
  <title>Linkedin_icon</title>
  <path fill="#007bb5" d="M82.5,78.44a4.06,4.06,0,0,1-4.06,4.06H21.56a4.06,4.06,0,0,1-4.06-4.06V21.56a4.06,4.06,0,0,1,4.06-4.06H78.44a4.06,4.06,0,0,1,4.06,4.06Z"/>
  <rect fill="#ffffff" x="31.72" y="39.84" width="8.13" height="28.44"/>
  <path fill="#ffffff" d="M59.14,39.84c-5.67,0-6.65,2.07-7.11,4.07V39.84H43.91V68.28H52V52C52,49.4,53.46,48,56.09,48s4.07,1.4,4.07,4.06V68.28h8.12V54.06C68.28,45.94,67.22,39.84,59.14,39.84Z"/>
  <circle fill="#ffffff" cx="35.78" cy="33.75" r="4.06"/>
</svg>
