<svg xmlns="http://www.w3.org/2000/svg" height=80 width=80 viewBox="0 0 80 80">
  <title>youtube_icon</title>
  <path fill="#e02f2f" d="M89.2,32.94s-.78-5.88-3.18-8.47a11,11,0,0,0-8-3.61C66.81,20,50,20,50,20h0s-16.79,0-28,.87a11,11,0,0,0-8,3.61c-2.4,2.59-3.18,8.47-3.18,8.47A137.65,137.65,0,0,0,10,46.75v6.47A137.72,137.72,0,0,0,10.8,67s.78,5.88,3.18,8.46c3,3.4,7,3.3,8.82,3.65C29.2,79.81,50,80,50,80s16.81,0,28-.89a11.09,11.09,0,0,0,8-3.61C88.42,72.92,89.2,67,89.2,67A137.65,137.65,0,0,0,90,53.23V46.75A137.65,137.65,0,0,0,89.2,32.94Z"/>
  <polygon fill="#ffffff" points="40.01 34.99 40.01 65 65.02 50 40.01 34.99"/>
</svg>
